<?xml version="1.0" standalone="no"?>
<!DOCTYPE svg PUBLIC "-//W3C//DTD SVG 20010904//EN"
 "http://www.w3.org/TR/2001/REC-SVG-20010904/DTD/svg10.dtd">
<svg version="1.0" xmlns="http://www.w3.org/2000/svg"
 width="300.000000pt" height="349.000000pt" viewBox="0 0 300.000000 349.000000"
 preserveAspectRatio="xMidYMid meet">
<metadata>
Created by potrace 1.10, written by Peter Selinger 2001-2011
</metadata>
<g transform="translate(0.000000,349.000000) scale(0.100000,-0.100000)"
fill="#000000" stroke="none">
<path d="M2175 3459 c20 -18 38 -29 42 -26 7 7 -15 30 -44 45 -36 20 -36 14 2
-19z"/>
<path d="M1023 3470 c-13 -5 -23 -15 -23 -23 0 -7 -11 -24 -25 -37 -26 -24
-34 -70 -13 -70 7 0 3 -7 -10 -15 -27 -20 -84 -117 -99 -170 -6 -22 -15 -92
-18 -155 -4 -63 -15 -157 -26 -209 -11 -57 -15 -98 -10 -105 9 -11 5 -217 -4
-243 -2 -7 0 -13 5 -13 23 0 31 -69 20 -172 -11 -99 -7 -205 10 -278 8 -33 24
-104 36 -160 12 -59 21 -83 61 -180 54 -130 61 -146 119 -268 30 -62 54 -117
54 -122 0 -13 48 -98 77 -136 25 -33 48 -141 38 -174 -3 -10 -31 -34 -63 -53
-326 -198 -408 -247 -415 -247 -5 0 -50 -26 -100 -59 -51 -32 -139 -87 -196
-122 -136 -84 -173 -118 -269 -246 -107 -146 -141 -213 -105 -213 12 0 28 20
49 63 17 34 40 67 52 73 12 6 19 13 16 17 -3 3 3 19 15 35 12 17 21 35 21 41
0 7 16 21 35 32 19 12 35 27 35 35 0 8 3 14 8 14 4 0 23 16 43 34 43 41 98 76
119 76 9 0 36 18 60 40 24 22 47 40 50 41 3 0 15 2 27 3 12 1 33 17 48 34 15
18 34 32 43 32 10 0 34 14 55 30 22 16 45 26 52 24 7 -3 18 4 25 15 7 13 21
21 38 21 16 0 32 8 39 19 6 10 31 28 55 41 24 12 45 25 48 29 6 7 39 26 87 52
17 9 40 24 50 34 17 18 18 16 24 -61 8 -98 28 -159 79 -246 22 -36 40 -69 40
-71 0 -3 12 -18 28 -34 75 -79 219 -123 345 -104 40 6 86 13 102 15 17 2 64
15 105 29 41 13 95 30 120 37 65 19 141 51 172 72 16 11 32 17 37 14 5 -3 11
0 14 8 3 7 27 26 54 41 26 16 53 33 59 39 6 6 46 43 89 81 43 39 129 120 192
181 62 61 116 108 119 103 3 -5 12 -9 20 -9 21 0 135 -90 128 -101 -3 -5 1 -9
9 -9 8 0 18 -7 21 -16 3 -8 10 -13 15 -9 6 3 25 -4 43 -15 39 -24 48 -25 48
-5 0 8 -30 35 -68 59 -37 25 -77 58 -90 75 -12 17 -29 31 -37 31 -8 0 -38 14
-65 31 -37 23 -70 34 -118 39 -78 9 -95 15 -222 78 -63 31 -114 65 -153 103
l-58 56 2 159 c0 87 5 184 10 214 5 30 11 72 13 92 8 60 26 118 37 118 6 0 22
-9 36 -20 14 -11 34 -20 45 -20 19 0 107 76 108 93 0 4 15 29 33 55 18 26 43
74 55 108 24 67 28 87 11 64 -9 -12 -10 -12 -5 3 3 10 6 28 6 38 0 11 5 17 10
14 6 -4 7 -12 4 -18 -4 -7 -3 -8 1 -4 11 10 15 28 22 100 5 54 4 59 -13 55
-15 -2 -19 -13 -21 -46 -1 -23 -9 -57 -18 -75 -9 -17 -18 -50 -21 -72 -3 -22
-7 -51 -10 -65 -6 -29 -52 -80 -71 -80 -7 0 -13 -4 -13 -10 0 -14 13 -13 28 2
6 6 15 8 19 4 5 -4 0 -13 -10 -20 -9 -7 -17 -19 -17 -26 0 -18 -86 -100 -106
-100 -22 0 -76 60 -69 77 13 36 17 68 7 58 -12 -11 -61 -172 -68 -224 -2 -18
-6 -36 -9 -40 -2 -4 -7 -59 -10 -122 -3 -63 -8 -130 -9 -149 -2 -19 1 -66 6
-104 12 -90 48 -147 119 -189 96 -58 212 -109 274 -122 74 -16 115 -32 115
-44 0 -5 -24 -29 -52 -52 -29 -24 -101 -89 -160 -145 -222 -213 -336 -278
-638 -366 -158 -46 -236 -55 -318 -39 -116 23 -191 74 -222 152 -8 19 -26 49
-42 67 -15 18 -28 42 -28 53 0 11 -10 49 -21 85 -25 78 -22 138 11 183 24 35
29 105 10 155 -13 36 -11 39 23 21 15 -8 27 -12 27 -10 0 3 11 0 25 -5 79 -30
180 -36 265 -15 39 9 70 21 70 26 0 12 -27 12 -34 0 -7 -11 -106 -24 -171 -22
-27 1 -75 8 -105 17 -30 9 -55 14 -56 13 -2 -10 -37 28 -45 48 -5 13 -14 22
-21 21 -7 -2 -12 5 -12 15 1 9 -5 17 -13 17 -9 0 -13 6 -10 14 4 10 1 13 -8
10 -8 -4 -15 5 -20 25 -4 17 -10 31 -15 31 -12 0 -10 63 2 71 5 3 -5 12 -22
19 -23 10 -30 18 -27 32 3 10 1 18 -5 18 -5 0 -8 6 -5 13 2 6 10 11 16 9 6 -1
11 2 11 8 0 13 -6 13 -30 0 -13 -7 -21 -7 -26 2 -5 7 -3 8 6 3 10 -6 12 -4 7
9 -4 10 -7 20 -7 22 0 3 -5 2 -10 -1 -6 -3 -15 6 -20 20 -13 33 -13 38 0 30 6
-3 10 -2 10 4 0 5 -6 14 -13 18 -7 4 -18 22 -25 38 -6 17 -17 44 -23 60 -7 17
-13 37 -14 45 -6 31 -57 227 -70 270 l-15 45 5 -53 c3 -29 8 -60 11 -70 5 -15
4 -15 -5 -1 -6 9 -18 66 -27 125 -14 90 -15 133 -7 249 14 193 14 243 2 250
-7 5 -4 14 7 26 9 10 14 19 9 19 -4 0 -2 6 4 14 7 8 22 12 34 10 20 -4 20 -4
2 4 -18 8 -17 10 14 26 40 21 91 29 91 15 0 -12 40 -2 55 13 7 7 2 9 -15 5
-14 -3 -43 1 -65 8 -21 8 -41 12 -44 10 -2 -3 1 -5 7 -5 22 0 12 -18 -12 -24
-14 -3 -32 -14 -42 -23 -9 -9 -25 -18 -35 -18 -23 -2 -24 4 -5 19 8 6 17 36
20 66 18 176 37 300 53 340 32 79 93 180 123 202 27 19 32 38 10 38 -30 0
-155 -150 -131 -158 6 -2 11 -8 11 -14 0 -6 -7 -8 -15 -5 -8 4 -18 1 -22 -6
-4 -7 -10 4 -14 28 -4 22 -3 42 1 45 4 3 10 23 13 44 6 39 37 86 37 57 0 -11
3 -11 15 -1 8 7 15 20 15 28 0 9 12 29 28 45 l27 29 -25 -6 c-22 -6 -22 -5 5
10 20 12 30 13 33 5 4 -13 22 -15 22 -2 0 5 -16 15 -35 21 -40 13 -44 24 -15
40 11 6 20 17 20 24 0 7 11 19 25 26 26 14 34 40 13 39 -7 0 -23 -4 -35 -9z
m-181 -715 c3 -14 1 -25 -3 -25 -5 0 -9 11 -9 25 0 14 2 25 4 25 2 0 6 -11 8
-25z"/>
<path d="M1465 3470 c-3 -4 12 -11 33 -14 20 -4 56 -14 80 -23 23 -9 45 -13
48 -11 5 6 -68 34 -124 48 -17 4 -34 4 -37 0z"/>
<path d="M2240 3473 c1 -14 25 -39 45 -47 20 -8 20 -8 0 -16 -11 -4 -27 -5
-35 -2 -13 5 -13 3 -1 -11 7 -9 24 -17 37 -17 25 0 45 -21 26 -28 -20 -6 -13
-20 8 -15 36 10 77 -18 91 -62 17 -51 50 -105 67 -105 6 0 12 -5 12 -11 0 -5
-4 -7 -10 -4 -5 3 -10 2 -10 -3 0 -6 7 -12 15 -16 8 -3 15 -14 15 -25 0 -11 8
-34 17 -53 9 -18 22 -45 29 -59 8 -14 11 -43 9 -65 -3 -22 -1 -61 4 -87 5 -26
5 -49 1 -52 -4 -3 -6 -34 -4 -71 2 -36 1 -71 -3 -77 -4 -6 -6 -30 -4 -54 1
-24 -1 -43 -6 -43 -5 0 -8 -35 -6 -77 2 -90 -3 -114 -21 -107 -7 3 -16 -2 -20
-11 -3 -9 -10 -14 -15 -11 -17 11 -22 -27 -6 -43 14 -14 16 -14 21 6 7 24 56
37 74 19 8 -8 11 12 9 69 -2 106 9 246 21 261 7 8 7 21 0 38 -13 36 -13 83 1
92 8 5 9 27 4 73 -4 36 -7 82 -7 101 2 31 -12 66 -70 183 -34 68 -51 97 -59
97 -5 0 -9 7 -9 15 0 8 -5 15 -11 15 -6 0 -8 8 -4 19 9 28 -15 61 -45 61 -27
0 -67 40 -76 77 -4 13 -11 23 -16 23 -5 0 -16 7 -24 15 -16 16 -44 21 -44 8z"/>
<path d="M1661 3424 c12 -13 28 -24 35 -24 6 0 14 -8 17 -19 2 -10 23 -27 46
-37 22 -10 36 -21 31 -24 -7 -4 -5 -11 5 -20 8 -7 15 -9 15 -5 0 5 8 1 18 -8
16 -15 18 -15 18 3 0 10 -3 18 -7 17 -4 -1 -27 17 -52 41 -25 23 -49 42 -54
42 -4 0 -18 11 -30 24 -13 13 -32 26 -44 29 -21 6 -21 5 2 -19z"/>
<path d="M1081 3426 c2 -2 18 -6 34 -10 22 -5 26 -4 15 4 -14 9 -59 15 -49 6z"/>
<path d="M1484 3380 c44 -22 81 -38 83 -36 6 5 -37 30 -94 54 -81 35 -76 25
11 -18z"/>
<path d="M1016 3391 c-17 -18 -16 -19 26 -23 24 -3 48 -1 53 4 6 6 4 7 -6 3
-11 -4 -25 2 -36 14 -19 21 -20 21 -37 2z"/>
<path d="M1270 3401 c19 -5 50 -14 67 -19 18 -6 35 -7 38 -2 7 12 -19 19 -83
25 -46 3 -50 3 -22 -4z"/>
<path d="M1694 3355 c11 -8 25 -15 30 -15 6 0 2 7 -8 15 -11 8 -25 15 -30 15
-6 0 -2 -7 8 -15z"/>
<path d="M1130 3355 c8 -2 49 -9 90 -15 41 -7 97 -21 124 -31 28 -10 51 -17
53 -15 7 7 -24 23 -67 35 -84 22 -95 24 -155 27 -33 1 -53 1 -45 -1z"/>
<path d="M1399 3325 c18 -8 36 -15 40 -15 13 1 -45 29 -59 29 -8 0 0 -6 19
-14z"/>
<path d="M1710 3315 c0 -7 105 -69 114 -67 5 2 13 -3 17 -10 4 -7 11 -9 15 -5
4 4 -1 14 -12 21 -14 11 -21 11 -26 3 -6 -9 -8 -9 -8 0 0 7 -22 23 -50 37 -27
14 -50 23 -50 21z"/>
<path d="M2250 3310 c0 -5 -7 -10 -17 -10 -9 0 -13 -3 -10 -7 4 -3 17 -1 30 5
12 6 29 13 37 15 8 3 3 6 -12 6 -16 1 -28 -3 -28 -9z"/>
<path d="M1174 3267 c-27 -30 -27 -30 -3 -9 16 14 29 19 33 14 3 -6 1 -13 -4
-15 -6 -3 -5 -4 2 -3 7 2 21 -1 31 -6 30 -16 29 -3 -2 24 l-29 26 -28 -31z"/>
<path d="M1247 3280 c10 -11 21 -20 24 -20 4 0 5 9 2 20 -3 11 -14 20 -24 20
-18 0 -18 -1 -2 -20z"/>
<path d="M1442 3272 c14 -32 39 -64 46 -57 3 2 -1 12 -8 21 -11 12 -11 17 -1
23 13 9 1 23 -31 34 -15 5 -16 3 -6 -21z"/>
<path d="M1496 3279 c10 -12 29 -25 41 -30 15 -5 21 -14 17 -24 -3 -8 -1 -15
6 -15 6 0 8 5 4 12 -5 7 -2 9 8 5 9 -3 20 -1 26 5 7 7 18 3 35 -14 22 -22 26
-23 36 -9 6 9 10 11 7 5 -3 -6 1 -11 9 -11 8 0 12 4 9 9 -9 14 20 9 44 -8 12
-8 22 -13 22 -10 0 12 -108 73 -157 89 -68 22 -75 21 -35 -4 17 -12 32 -25 32
-30 0 -17 -24 -9 -53 19 -25 22 -29 24 -23 7 7 -18 5 -18 -14 3 -26 28 -40 29
-14 1z"/>
<path d="M1682 3288 c2 -6 15 -18 29 -27 l24 -15 -24 27 c-26 29 -35 34 -29
15z"/>
<path d="M1283 3260 c-2 -28 -1 -30 20 -18 29 16 49 16 69 0 14 -12 16 -11 14
2 -3 22 -12 29 -43 31 -16 2 -35 5 -43 9 -11 5 -16 -1 -17 -24z"/>
<path d="M1075 3250 c11 -5 27 -9 35 -9 9 0 8 4 -5 9 -11 5 -27 9 -35 9 -9 0
-8 -4 5 -9z"/>
<path d="M1765 3240 c11 -12 19 -24 18 -26 -11 -17 39 -50 58 -39 5 4 9 1 9
-4 0 -6 15 -10 33 -10 29 1 30 2 7 8 -14 3 -34 14 -45 24 -11 10 -38 30 -60
44 -37 24 -38 24 -20 3z"/>
<path d="M1960 3162 c-18 -6 0 -22 25 -22 13 0 25 -4 27 -8 2 -5 19 -12 38
-15 l35 -6 -33 28 c-30 26 -60 33 -92 23z"/>
<path d="M2240 3077 c0 -19 18 -22 40 -6 13 9 13 10 -1 6 -9 -3 -22 0 -28 6
-8 8 -11 7 -11 -6z"/>
<path d="M2291 2923 c-1 -6 -3 -18 -6 -26 -4 -8 0 -14 10 -14 17 0 17 3 5 32
-5 11 -9 15 -9 8z"/>
<path d="M2254 2784 c3 -9 6 -25 6 -37 1 -20 2 -20 11 -5 7 12 6 24 -1 38 -13
24 -25 27 -16 4z"/>
<path d="M1559 2601 c8 -6 11 -17 6 -32 l-7 -24 17 24 c15 19 15 25 4 32 -8 5
-18 9 -24 9 -5 0 -4 -4 4 -9z"/>
<path d="M1662 2594 c-12 -8 -22 -22 -22 -30 0 -8 -4 -14 -9 -14 -6 0 -9 -9
-8 -21 1 -14 7 -19 19 -16 9 3 20 0 23 -7 3 -8 7 -7 11 2 15 33 57 63 79 58
13 -3 29 -7 37 -9 7 -2 10 -2 5 0 -4 3 -5 8 -3 11 2 4 -7 8 -20 8 -13 1 -36 5
-50 8 -17 5 -23 3 -19 -4 3 -5 -1 -10 -11 -10 -11 0 -15 6 -11 20 6 24 7 24
-21 4z"/>
<path d="M2234 2569 c1 -19 4 -39 8 -44 17 -30 26 -128 25 -262 -1 -84 1 -153
6 -153 17 0 28 59 26 130 -2 41 0 81 5 88 4 7 3 18 -2 25 -10 13 -9 42 3 70 9
22 -1 78 -20 103 -14 18 -14 18 -9 -2 3 -12 1 -25 -5 -28 -7 -4 -11 1 -11 13
0 10 -3 26 -6 35 -4 11 -1 16 11 16 9 0 13 5 10 10 -4 6 -10 8 -15 5 -5 -3
-13 2 -18 11 -7 13 -9 9 -8 -17z m66 -116 c0 -22 -2 -25 -10 -13 -13 20 -13
40 0 40 6 0 10 -12 10 -27z"/>
<path d="M1037 2573 c4 -11 3 -14 -5 -9 -8 5 -12 0 -12 -12 0 -14 11 -23 43
-31 23 -7 47 -11 52 -10 21 6 92 -14 132 -37 49 -28 54 -29 47 -9 -4 8 -10 13
-14 10 -4 -3 -11 5 -15 18 -3 12 -9 17 -11 10 -8 -18 -34 -4 -34 18 0 11 7 19
18 20 13 0 14 2 2 6 -8 4 -21 13 -29 20 -8 8 -22 12 -32 10 -11 -3 -22 -1 -25
4 -3 5 -16 9 -30 9 -14 0 -22 -4 -19 -10 3 -5 -3 -10 -14 -10 -11 0 -23 5 -26
10 -11 17 -35 12 -28 -7z"/>
<path d="M920 2570 c0 -13 11 -13 30 0 12 8 11 10 -7 10 -13 0 -23 -4 -23 -10z"/>
<path d="M950 2550 c0 -5 -8 -7 -17 -4 -14 4 -15 3 -5 -4 8 -5 23 -8 35 -7 12
1 28 3 35 4 26 2 11 21 -18 21 -16 0 -30 -4 -30 -10z"/>
<path d="M1733 2553 c-8 -3 -11 -14 -7 -29 5 -19 2 -24 -12 -24 -31 0 -6 -13
33 -16 134 -12 173 -18 173 -25 0 -5 3 -8 8 -7 15 4 72 -14 79 -24 4 -7 0 -9
-10 -5 -10 3 -17 2 -17 -3 0 -4 14 -11 30 -15 19 -4 30 -13 30 -24 0 -24 39
-63 58 -58 10 2 15 10 13 18 -2 8 -4 21 -5 30 0 18 -36 46 -36 29 0 -5 5 -10
11 -10 6 0 9 -7 6 -15 -4 -8 -2 -17 3 -20 12 -7 13 -25 3 -25 -5 0 -16 12 -26
25 -17 24 -17 24 0 18 16 -6 16 -5 4 10 -8 10 -11 20 -8 24 4 3 -2 18 -13 33
-11 15 -17 29 -14 32 2 3 -2 11 -11 18 -13 11 -15 9 -13 -11 2 -13 10 -29 18
-36 8 -7 11 -13 5 -13 -5 0 -3 -5 5 -10 12 -8 10 -10 -9 -10 -19 0 -21 3 -12
14 9 11 5 16 -19 26 -17 7 -33 17 -36 22 -4 6 4 5 16 -2 12 -6 24 -9 26 -7 3
3 -9 12 -26 20 -16 9 -28 11 -25 6 4 -5 -3 -9 -14 -9 -10 0 -21 5 -23 11 -2 6
-29 12 -60 12 -31 1 -60 6 -65 11 -5 5 -1 7 8 3 9 -3 21 -1 27 5 8 8 16 7 27
-2 11 -9 19 -10 26 -3 7 7 4 15 -8 24 -16 13 -17 12 -4 -3 17 -22 -2 -24 -20
-2 -11 14 -13 14 -21 0 -8 -13 -13 -13 -41 4 -34 21 -35 21 -54 13z m39 -30
c-6 -2 -10 -9 -6 -14 3 -5 -2 -9 -10 -9 -10 0 -13 6 -10 15 4 8 14 15 23 14
10 0 11 -2 3 -6z"/>
<path d="M1922 2551 c-11 -6 -10 -10 5 -16 10 -5 22 -7 27 -6 14 3 36 -21 29
-32 -4 -6 -1 -7 6 -2 9 5 5 15 -15 36 -30 32 -33 33 -52 20z"/>
<path d="M1580 2541 c0 -5 -3 -17 -7 -27 -4 -11 -3 -15 4 -11 14 9 24 47 12
47 -5 0 -9 -4 -9 -9z"/>
<path d="M948 2449 c-10 -5 -18 -15 -18 -22 0 -8 3 -9 8 -1 4 6 16 16 27 22
11 6 16 11 10 11 -5 0 -18 -4 -27 -10z"/>
<path d="M1007 2446 c-21 -8 -46 -21 -56 -30 -10 -9 -21 -13 -24 -9 -4 3 -7 1
-7 -6 0 -6 -10 -16 -22 -21 l-23 -9 23 0 c15 -1 21 -5 16 -13 -4 -6 3 -4 16 5
15 11 33 14 54 10 29 -6 30 -5 16 11 -13 16 -12 20 9 37 31 26 39 24 43 -8 3
-26 7 -28 53 -31 37 -2 52 1 61 13 11 14 16 15 36 4 l23 -13 -30 -7 -30 -7 35
-1 c19 -1 41 -5 49 -10 13 -8 41 7 41 23 0 11 -88 65 -116 71 -20 4 -11 -4 30
-27 33 -18 62 -40 64 -48 4 -12 2 -12 -19 1 -114 74 -175 90 -242 65z m130
-17 c12 -12 7 -39 -8 -39 -5 0 -9 8 -9 17 0 15 -1 15 -13 -2 -15 -19 -37 -13
-37 10 0 23 48 33 67 14z"/>
<path d="M1675 2413 c-26 -7 -105 -64 -105 -76 0 -5 6 -4 14 2 30 25 105 59
140 64 21 3 40 8 43 11 7 7 -63 6 -92 -1z"/>
<path d="M1324 2402 c3 -5 2 -12 -3 -14 -5 -1 -11 -30 -14 -63 -3 -33 -12 -81
-20 -107 -9 -27 -12 -48 -7 -48 11 0 51 129 57 186 4 27 1 44 -7 49 -8 5 -11
4 -6 -3z"/>
<path d="M1484 2392 c-12 -26 -14 -63 -3 -57 5 4 9 14 9 24 0 9 5 22 11 28 7
7 7 13 1 17 -5 3 -13 -2 -18 -12z"/>
<path d="M1650 2353 c-36 -19 -66 -36 -67 -37 -2 -1 26 -2 61 -2 35 1 59 4 53
8 -7 4 -21 8 -32 8 -16 0 -13 4 13 20 43 26 49 25 57 -10 4 -17 13 -30 21 -30
12 0 12 4 4 21 -8 14 -8 24 -1 33 16 19 55 8 68 -20 10 -21 9 -23 -12 -22 -14
1 -21 7 -18 15 3 7 0 13 -6 13 -6 0 -11 -9 -11 -20 0 -16 7 -20 34 -20 21 0
36 6 40 15 3 8 9 15 15 15 13 0 20 -38 7 -44 -7 -3 -7 -5 2 -5 23 -2 27 -4 40
-23 13 -18 32 -17 32 2 0 18 -64 82 -101 101 -59 29 -121 24 -199 -18z"/>
<path d="M2335 2377 c-4 -10 -5 -21 -1 -24 10 -10 18 4 13 24 -4 17 -4 17 -12
0z"/>
<path d="M1917 2351 c22 -16 49 -40 60 -54 14 -18 24 -23 34 -16 8 5 10 9 4 9
-5 0 -23 13 -40 28 -37 35 -77 62 -89 62 -5 0 9 -13 31 -29z"/>
<path d="M2430 2318 c0 -7 -3 -24 -7 -37 -5 -21 -3 -23 18 -16 33 10 34 12 19
40 -14 27 -30 33 -30 13z"/>
<path d="M940 2290 c-10 -6 -5 -9 18 -8 22 1 29 4 20 9 -16 11 -20 11 -38 -1z"/>
<path d="M1463 2265 c1 -16 7 -31 12 -31 11 -2 11 0 -4 36 -11 25 -11 25 -8
-5z"/>
<path d="M1530 2270 c0 -5 14 -7 33 -3 45 8 47 13 4 13 -20 0 -37 -4 -37 -10z"/>
<path d="M2393 2273 c-9 -3 -9 -10 -1 -29 19 -41 38 -25 20 17 -4 9 -12 14
-19 12z"/>
<path d="M1010 2260 c25 -4 52 -4 60 1 9 5 -8 8 -45 7 l-60 -1 45 -7z"/>
<path d="M2319 2255 c-2 -25 -2 -22 14 -69 l14 -38 8 43 c4 24 9 50 11 57 1 6
-2 12 -7 12 -5 0 -9 -10 -10 -22 -1 -21 -2 -20 -14 7 -12 24 -14 26 -16 10z"/>
<path d="M2010 2230 c8 -5 24 -10 34 -10 26 0 18 6 -19 14 -22 5 -26 4 -15 -4z"/>
<path d="M2135 2230 c-3 -6 -18 -7 -33 -4 -15 4 -24 3 -19 -2 14 -14 45 -14
57 1 7 8 10 15 7 15 -3 0 -9 -5 -12 -10z"/>
<path d="M1880 2220 c-22 -7 -21 -8 12 -9 20 -1 40 4 43 9 7 12 -19 12 -55 0z"/>
<path d="M1760 2190 c8 -5 42 -9 75 -9 l60 2 -45 8 c-66 11 -109 11 -90 -1z"/>
<path d="M1957 2161 c24 -23 33 -26 33 -13 0 5 -12 14 -27 21 l-28 13 22 -21z"/>
<path d="M2390 2139 c0 -17 4 -28 10 -24 6 3 10 17 10 31 0 13 -4 24 -10 24
-5 0 -10 -14 -10 -31z"/>
<path d="M1211 2087 c-6 -8 -8 -16 -5 -19 3 -4 -2 -20 -11 -38 -9 -18 -14 -34
-11 -37 4 -4 56 89 56 102 0 10 -18 5 -29 -8z"/>
<path d="M2299 2073 c-5 -14 -8 -30 -6 -36 1 -5 8 7 14 27 13 42 7 49 -8 9z"/>
<path d="M2405 2020 c-16 -16 -25 -30 -21 -30 16 0 64 30 69 45 10 25 -17 17
-48 -15z"/>
<path d="M1530 2035 c0 -3 14 -11 30 -20 17 -9 30 -11 30 -6 0 5 -13 14 -30
20 -16 5 -30 8 -30 6z"/>
<path d="M2325 2000 c-8 -16 -15 -37 -15 -47 0 -30 32 10 36 46 5 39 -1 39
-21 1z"/>
<path d="M1223 1971 c6 -17 14 -28 19 -25 4 3 1 16 -8 30 -21 32 -25 30 -11
-5z"/>
<path d="M1597 1961 c3 -10 -1 -29 -7 -41 -11 -20 -17 -22 -62 -17 -39 5 -62
2 -99 -14 -26 -12 -50 -27 -53 -35 -7 -18 -6 -18 48 12 37 21 54 24 86 19 30
-5 47 -2 66 9 13 9 28 15 32 12 7 -4 8 17 3 62 0 6 -5 12 -10 12 -5 0 -7 -9
-4 -19z"/>
<path d="M1719 1914 c24 -27 70 -77 103 -112 53 -57 59 -66 53 -94 -6 -23 -4
-29 6 -26 36 12 10 76 -58 139 -26 25 -61 62 -76 82 -15 20 -38 42 -50 48 -14
8 -6 -5 22 -37z"/>
<path d="M1160 1933 c0 -12 34 -43 75 -68 l30 -19 -16 25 c-9 13 -25 29 -37
34 -11 6 -27 17 -36 24 -9 7 -16 9 -16 4z"/>
<path d="M927 1853 c-3 -5 -1 -17 4 -28 7 -17 8 -17 8 8 1 27 -4 34 -12 20z"/>
<path d="M1257 1831 c-29 -11 -1 -28 58 -35 l50 -7 -34 16 c-19 8 -39 19 -45
24 -6 5 -19 5 -29 2z"/>
<path d="M1010 1805 c-10 -12 -10 -15 3 -15 8 0 17 7 21 15 3 8 2 15 -3 15 -5
0 -14 -7 -21 -15z"/>
<path d="M1076 1732 c-3 -5 5 -19 18 -31 16 -15 25 -19 28 -10 4 12 48 -53 48
-70 0 -16 109 -102 156 -122 55 -25 108 -20 190 16 29 13 62 21 73 18 12 -3
21 -1 21 6 0 6 -8 11 -18 11 -10 0 -23 5 -30 12 -9 9 -13 8 -17 -4 -4 -10 -14
-14 -26 -11 -13 4 -19 0 -19 -10 0 -21 -72 -32 -145 -22 -52 6 -83 24 -57 33
23 7 13 29 -12 25 -13 -3 -27 0 -30 6 -4 6 -16 11 -26 11 -23 0 -63 79 -54
104 8 20 13 20 57 1 19 -8 37 -12 40 -8 4 3 19 1 34 -6 31 -12 84 -14 153 -6
94 12 270 15 270 5 0 -5 -7 -10 -15 -10 -8 0 -15 -7 -15 -15 0 -17 16 -20 25
-5 10 16 25 12 19 -5 -4 -8 -17 -18 -30 -21 -13 -3 -24 -10 -24 -15 0 -5 -6
-6 -14 -3 -7 3 -16 -2 -19 -10 -4 -9 -13 -16 -21 -16 -18 0 -25 -20 -16 -44 6
-17 7 -17 13 -3 3 9 23 25 44 36 21 11 63 42 93 69 l54 50 -49 9 c-28 4 -106
7 -175 5 -246 -6 -276 -5 -370 12 -52 10 -107 20 -121 23 -15 3 -29 1 -33 -5z"/>
<path d="M1240 1661 c0 -17 18 -21 24 -6 3 9 0 15 -9 15 -8 0 -15 -4 -15 -9z"/>
<path d="M1297 1629 c4 -16 8 -17 14 -7 13 19 11 28 -5 28 -9 0 -12 -7 -9 -21z"/>
<path d="M1546 1633 c-4 -9 -3 -20 2 -25 6 -6 12 -1 15 11 6 25 -8 38 -17 14z"/>
<path d="M1120 1635 c0 -10 53 -81 66 -88 8 -4 14 -15 14 -22 0 -8 5 -15 10
-15 6 0 10 6 10 13 0 19 -35 49 -45 40 -4 -5 -5 -2 0 5 5 9 -3 24 -24 42 -17
16 -31 27 -31 25z"/>
<path d="M1378 1609 c3 -22 7 -27 13 -18 13 21 11 49 -4 49 -9 0 -12 -10 -9
-31z"/>
<path d="M1472 1614 c11 -23 13 -24 19 -7 12 29 10 33 -11 33 -17 0 -18 -3 -8
-26z"/>
<path d="M1470 1551 c0 -5 -10 -11 -22 -13 -13 -2 -18 -6 -13 -10 6 -3 21 -1
34 6 15 9 20 16 12 20 -6 4 -11 3 -11 -3z"/>
<path d="M1041 1518 c1 -27 16 -51 33 -54 9 -1 16 1 14 4 -2 4 -10 19 -17 35
-15 28 -32 36 -30 15z"/>
<path d="M1901 1468 c-9 -26 -9 -30 1 -20 11 11 22 52 14 52 -2 0 -9 -15 -15
-32z"/>
<path d="M1226 1435 c-16 -12 -17 -18 -8 -27 9 -9 12 -9 12 3 0 9 10 21 23 27
13 6 16 11 7 11 -8 0 -24 -6 -34 -14z"/>
<path d="M1511 1426 c-9 -11 -8 -15 5 -20 10 -4 22 -2 28 4 8 8 6 9 -8 4 -16
-6 -18 -4 -13 9 8 21 3 22 -12 3z"/>
<path d="M1283 1416 c-10 -11 -9 -15 2 -20 10 -4 15 1 15 14 0 23 -1 24 -17 6z"/>
<path d="M1420 1318 c0 -5 11 -8 24 -8 14 0 27 3 29 8 3 4 -8 7 -24 7 -16 0
-29 -3 -29 -7z"/>
<path d="M1707 1279 c-3 -12 -2 -31 2 -42 6 -17 8 -12 8 21 0 47 -2 52 -10 21z"/>
<path d="M1137 1273 c-3 -5 1 -14 9 -21 12 -10 14 -10 14 2 0 17 -16 30 -23
19z"/>
<path d="M1707 1131 c-21 -23 -47 -41 -57 -41 -11 0 -20 -4 -20 -10 0 -5 8
-10 18 -10 22 1 105 75 100 90 -2 6 -20 -7 -41 -29z"/>
</g>
</svg>
